<?xml version="1.0" encoding="UTF-8" standalone="no"?>
<!-- Created with Inkscape (http://www.inkscape.org/) -->

<svg
   xmlns:dc="http://purl.org/dc/elements/1.1/"
   xmlns:cc="http://creativecommons.org/ns#"
   xmlns:rdf="http://www.w3.org/1999/02/22-rdf-syntax-ns#"
   xmlns:svg="http://www.w3.org/2000/svg"
   xmlns="http://www.w3.org/2000/svg"
   xmlns:sodipodi="http://sodipodi.sourceforge.net/DTD/sodipodi-0.dtd"
   xmlns:inkscape="http://www.inkscape.org/namespaces/inkscape"
   width="376.07422"
   height="456.29813"
   id="svg2"
   version="1.1"
   inkscape:version="0.48.4 r9939"
   sodipodi:docname="logo.svg">
  <defs
     id="defs4" />
  <sodipodi:namedview
     id="base"
     pagecolor="#ffffff"
     bordercolor="#666666"
     borderopacity="1.0"
     inkscape:pageopacity="0.0"
     inkscape:pageshadow="2"
     inkscape:zoom="0.9899495"
     inkscape:cx="65.12108"
     inkscape:cy="192.52273"
     inkscape:document-units="px"
     inkscape:current-layer="layer1"
     showgrid="false"
     inkscape:window-width="1317"
     inkscape:window-height="744"
     inkscape:window-x="49"
     inkscape:window-y="24"
     inkscape:window-maximized="1"
     fit-margin-top="0"
     fit-margin-left="0"
     fit-margin-right="0"
     fit-margin-bottom="0" />
  <metadata
     id="metadata7">
    <rdf:RDF>
      <cc:Work
         rdf:about="">
        <dc:format>image/svg+xml</dc:format>
        <dc:type
           rdf:resource="http://purl.org/dc/dcmitype/StillImage" />
        <dc:title></dc:title>
      </cc:Work>
    </rdf:RDF>
  </metadata>
  <g
     inkscape:label="Layer 1"
     inkscape:groupmode="layer"
     id="layer1"
     transform="translate(-181.83838,-248.29508)">
    <path
       style="fill:#ffffff;fill-opacity:1;fill-rule:nonzero;stroke:none"
       id="path3029"
       d="m 372.1776,453.46197 c 1.88264,-21.27135 1.6711,-42.66014 1.57132,-63.99257 -0.0699,-17.86724 -0.6369,-35.73268 -0.4402,-53.60138 0.12234,-11.11399 0.3372,-20.5297 1.56302,-31.53633 0.49223,-4.41972 1.31897,-8.79574 1.97845,-13.19361 2.62166,-10.99621 5.41474,-23.6274 14.03343,-31.76631 4.90346,-4.63049 19.23894,-9.89399 21.83769,-11.07669 1.92066,0.45553 3.96559,0.5484 5.76199,1.36657 4.81362,2.19236 10.10956,7.29671 13.49695,10.96671 5.17466,5.60636 11.2998,13.83925 15.33182,20.17457 2.74137,4.30739 5.13398,8.82707 7.70097,13.24061 2.33565,5.18501 4.92499,10.26304 7.00695,15.55501 7.17524,18.23809 11.95475,37.60949 14.35937,57.05046 2.28446,18.46945 1.71502,24.6507 1.74013,43.33723 -0.87564,7.52169 -1.28765,15.11196 -2.62693,22.56508 -4.05127,22.54536 -12.25647,44.46964 -25.3931,63.34943 -11.31309,16.25901 -16.70517,19.50378 -31.36819,32.54584 -19.89548,13.65839 -22.55223,16.4848 -46.88769,27.85625 -10.68086,4.99094 -27.5852,9.9495 -39.12525,12.63046 -14.65797,3.4053 -19.21475,3.51751 -33.69336,5.1416 -11.52426,0.45851 -23.33101,1.06601 -34.64933,-1.75543 -2.51131,-0.62602 -5.01172,-1.41017 -7.33006,-2.56078 -5.55382,-2.75641 -6.17301,-4.48838 -9.97744,-9.10768 -1.0104,-2.27996 -2.28878,-4.45915 -3.03121,-6.8399 -2.01735,-6.46906 -2.72183,-14.53806 -2.85358,-21.15484 -0.20824,-10.45823 0.67018,-22.00604 2.10899,-32.30464 0.90703,-6.4923 2.24707,-12.9167 3.37061,-19.37505 6.77403,-30.2389 17.45218,-59.58544 33.8142,-86.01498 11.13465,-17.98577 15.178,-21.61001 28.65207,-37.57449 5.20588,-5.06367 10.41175,-10.12735 15.61763,-15.19103 0,0 9.86317,-4.06417 9.86317,-4.06417 l 0,0 c -5.30635,5.0679 -10.61271,10.13579 -15.91906,15.20368 -13.5363,15.81213 -17.80184,19.60861 -28.93982,37.47757 -16.28059,26.11938 -26.72416,55.24569 -33.06263,85.26021 -0.9948,6.36385 -2.21336,12.69672 -2.98439,19.09154 -1.28275,10.639 -1.81791,20.92196 -1.23631,31.60893 0.34984,6.4283 1.35616,14.09964 3.46518,20.32505 0.75967,2.24241 1.98536,4.29887 2.97804,6.44831 3.63725,4.38586 4.16722,5.91939 9.40835,8.60195 11.76321,6.02074 27.58973,4.97068 40.28223,4.81038 14.13377,-1.44396 18.58191,-1.48603 32.90882,-4.77888 15.66465,-3.60031 23.6424,-6.52578 38.68321,-12.57067 3.47953,-1.39841 7.03082,-2.71334 10.25038,-4.63613 6.41193,-3.82935 12.36707,-8.37632 18.55061,-12.56449 14.64043,-12.84878 20.18852,-16.19001 31.5339,-32.25444 13.19586,-18.68462 21.49675,-40.51151 25.53762,-62.93623 1.33231,-7.3936 1.70735,-14.92804 2.56103,-22.39206 -0.0934,-18.48524 0.45772,-24.78485 -1.91322,-43.04254 -3.24166,-24.9628 -10.4757,-49.36908 -22.10665,-71.71136 -2.657,-4.32045 -5.14231,-8.7513 -7.97099,-12.96135 -4.27793,-6.367 -10.30475,-14.08897 -15.82694,-19.55924 -3.49056,-3.45775 -8.89751,-8.08828 -13.78763,-9.89734 -1.75097,-0.64775 -3.69094,-0.56471 -5.53642,-0.84706 2.35906,-1.92216 5.25869,-3.32659 7.07716,-5.76646 1.15755,-1.55311 -3.50692,1.73006 -4.99394,2.97136 -9.02518,7.53388 -12.66612,20.90788 -15.57383,31.67191 -0.77755,4.42225 -1.73762,8.81626 -2.33263,13.26674 -3.77296,28.22033 -1.69828,56.81505 -1.44124,85.16132 0.57219,20.90702 1.07857,41.81141 1.17048,62.72706 0,0 -13.21373,6.6223 -13.21373,6.6223 z"
       inkscape:connector-curvature="0" />
    <text
       xml:space="preserve"
       style="font-size:40px;font-style:normal;font-weight:normal;line-height:125%;letter-spacing:0px;word-spacing:0px;fill:#ffffff;fill-opacity:1;stroke:none;font-family:Sans"
       x="183.90869"
       y="696.58539"
       id="text3045"
       sodipodi:linespacing="125%"><tspan
         sodipodi:role="line"
         id="tspan3047"
         x="183.90869"
         y="696.58539">J A V A   <tspan
   style="font-weight:bold;-inkscape-font-specification:Sans Bold;fill:#ffffff"
   id="tspan3049">B E A N S</tspan></tspan></text>
  </g>
</svg>
